<?xml version="1.0" encoding="UTF-8" standalone="no"?>
<!-- Created with Inkscape (http://www.inkscape.org/) -->

<svg
   width="500"
   height="500"
   viewBox="0 0 132.29167 132.29166"
   version="1.1"
   id="svg1"
   xml:space="preserve"
   inkscape:version="1.3.2 (091e20e, 2023-11-25, custom)"
   sodipodi:docname="Icono color proporcionado - copia.svg"
   inkscape:export-filename="..\Imagenes(PNG)\Logo Color C-F.png"
   inkscape:export-xdpi="325.12"
   inkscape:export-ydpi="325.12"
   xmlns:inkscape="http://www.inkscape.org/namespaces/inkscape"
   xmlns:sodipodi="http://sodipodi.sourceforge.net/DTD/sodipodi-0.dtd"
   xmlns="http://www.w3.org/2000/svg"
   xmlns:svg="http://www.w3.org/2000/svg"><sodipodi:namedview
     id="namedview1"
     pagecolor="#ffffff"
     bordercolor="#000000"
     borderopacity="0.25"
     inkscape:showpageshadow="2"
     inkscape:pageopacity="0.0"
     inkscape:pagecheckerboard="0"
     inkscape:deskcolor="#d1d1d1"
     inkscape:document-units="mm"
     inkscape:zoom="45.254834"
     inkscape:cx="156.03858"
     inkscape:cy="222.45137"
     inkscape:window-width="1920"
     inkscape:window-height="974"
     inkscape:window-x="-11"
     inkscape:window-y="-11"
     inkscape:window-maximized="1"
     inkscape:current-layer="layer1"
     inkscape:export-bgcolor="#ffffffff" /><defs
     id="defs1"><inkscape:path-effect
       effect="spiro"
       id="path-effect42"
       is_visible="true"
       lpeversion="1" /><inkscape:path-effect
       effect="spiro"
       id="path-effect39"
       is_visible="true"
       lpeversion="1" /><inkscape:path-effect
       effect="spiro"
       id="path-effect38"
       is_visible="true"
       lpeversion="1" /><inkscape:path-effect
       effect="spiro"
       id="path-effect37"
       is_visible="true"
       lpeversion="1" /><inkscape:path-effect
       effect="spiro"
       id="path-effect32"
       is_visible="true"
       lpeversion="1" /><inkscape:path-effect
       effect="spiro"
       id="path-effect31"
       is_visible="true"
       lpeversion="1" /><inkscape:path-effect
       effect="spiro"
       id="path-effect30"
       is_visible="true"
       lpeversion="1" /><inkscape:path-effect
       effect="spiro"
       id="path-effect29"
       is_visible="true"
       lpeversion="1" /><inkscape:path-effect
       effect="spiro"
       id="path-effect28"
       is_visible="true"
       lpeversion="1" /><inkscape:path-effect
       effect="spiro"
       id="path-effect26"
       is_visible="true"
       lpeversion="1" /><inkscape:path-effect
       effect="spiro"
       id="path-effect25"
       is_visible="true"
       lpeversion="1" /><inkscape:path-effect
       effect="spiro"
       id="path-effect24"
       is_visible="true"
       lpeversion="1" /><inkscape:path-effect
       effect="spiro"
       id="path-effect23"
       is_visible="true"
       lpeversion="1" /><inkscape:path-effect
       effect="spiro"
       id="path-effect22"
       is_visible="true"
       lpeversion="1" /><inkscape:path-effect
       effect="spiro"
       id="path-effect21"
       is_visible="true"
       lpeversion="1" /><inkscape:path-effect
       effect="spiro"
       id="path-effect20"
       is_visible="true"
       lpeversion="1" /><inkscape:path-effect
       effect="spiro"
       id="path-effect19"
       is_visible="true"
       lpeversion="1" /><inkscape:path-effect
       effect="spiro"
       id="path-effect18"
       is_visible="true"
       lpeversion="1" /><inkscape:path-effect
       effect="spiro"
       id="path-effect17"
       is_visible="true"
       lpeversion="1" /><inkscape:path-effect
       effect="spiro"
       id="path-effect16"
       is_visible="true"
       lpeversion="1" /><inkscape:path-effect
       effect="spiro"
       id="path-effect15"
       is_visible="true"
       lpeversion="1" /><inkscape:path-effect
       effect="spiro"
       id="path-effect14"
       is_visible="true"
       lpeversion="1" /><inkscape:path-effect
       effect="spiro"
       id="path-effect13"
       is_visible="true"
       lpeversion="1" /><inkscape:path-effect
       effect="spiro"
       id="path-effect12"
       is_visible="true"
       lpeversion="1" /><inkscape:path-effect
       effect="spiro"
       id="path-effect11"
       is_visible="true"
       lpeversion="1" /><inkscape:path-effect
       effect="spiro"
       id="path-effect10"
       is_visible="true"
       lpeversion="1" /><inkscape:path-effect
       effect="spiro"
       id="path-effect9"
       is_visible="true"
       lpeversion="1" /><inkscape:path-effect
       effect="spiro"
       id="path-effect8"
       is_visible="true"
       lpeversion="1" /><inkscape:path-effect
       effect="spiro"
       id="path-effect7"
       is_visible="true"
       lpeversion="1" /><inkscape:path-effect
       effect="spiro"
       id="path-effect6"
       is_visible="true"
       lpeversion="1" /><inkscape:path-effect
       effect="spiro"
       id="path-effect5"
       is_visible="true"
       lpeversion="1" /><inkscape:path-effect
       effect="spiro"
       id="path-effect4"
       is_visible="true"
       lpeversion="1" /><inkscape:path-effect
       effect="spiro"
       id="path-effect3"
       is_visible="true"
       lpeversion="1" /><inkscape:path-effect
       effect="spiro"
       id="path-effect2"
       is_visible="true"
       lpeversion="1" /><inkscape:path-effect
       effect="spiro"
       id="path-effect21-6"
       is_visible="true"
       lpeversion="1" /><inkscape:path-effect
       effect="spiro"
       id="path-effect2-6"
       is_visible="true"
       lpeversion="1" /><inkscape:path-effect
       effect="spiro"
       id="path-effect5-5"
       is_visible="true"
       lpeversion="1" /><inkscape:path-effect
       effect="spiro"
       id="path-effect6-7"
       is_visible="true"
       lpeversion="1" /><inkscape:path-effect
       effect="spiro"
       id="path-effect7-6"
       is_visible="true"
       lpeversion="1" /><inkscape:path-effect
       effect="spiro"
       id="path-effect8-3"
       is_visible="true"
       lpeversion="1" /><inkscape:path-effect
       effect="spiro"
       id="path-effect9-4"
       is_visible="true"
       lpeversion="1" /><inkscape:path-effect
       effect="spiro"
       id="path-effect11-8"
       is_visible="true"
       lpeversion="1" /><inkscape:path-effect
       effect="spiro"
       id="path-effect12-0"
       is_visible="true"
       lpeversion="1" /><inkscape:path-effect
       effect="spiro"
       id="path-effect13-2"
       is_visible="true"
       lpeversion="1" /><inkscape:path-effect
       effect="spiro"
       id="path-effect15-3"
       is_visible="true"
       lpeversion="1" /><inkscape:path-effect
       effect="spiro"
       id="path-effect17-1"
       is_visible="true"
       lpeversion="1" /><inkscape:path-effect
       effect="spiro"
       id="path-effect18-0"
       is_visible="true"
       lpeversion="1" /><inkscape:path-effect
       effect="spiro"
       id="path-effect19-1"
       is_visible="true"
       lpeversion="1" /><inkscape:path-effect
       effect="spiro"
       id="path-effect21-68"
       is_visible="true"
       lpeversion="1" /><inkscape:path-effect
       effect="spiro"
       id="path-effect22-4"
       is_visible="true"
       lpeversion="1" /><inkscape:path-effect
       effect="spiro"
       id="path-effect31-4"
       is_visible="true"
       lpeversion="1" /><inkscape:path-effect
       effect="spiro"
       id="path-effect32-1"
       is_visible="true"
       lpeversion="1" /><inkscape:path-effect
       effect="spiro"
       id="path-effect39-1"
       is_visible="true"
       lpeversion="1" /><inkscape:path-effect
       effect="spiro"
       id="path-effect42-5"
       is_visible="true"
       lpeversion="1" /><inkscape:path-effect
       effect="spiro"
       id="path-effect2-6-2"
       is_visible="true"
       lpeversion="1" /><inkscape:path-effect
       effect="spiro"
       id="path-effect5-5-8"
       is_visible="true"
       lpeversion="1" /><inkscape:path-effect
       effect="spiro"
       id="path-effect6-7-8"
       is_visible="true"
       lpeversion="1" /><inkscape:path-effect
       effect="spiro"
       id="path-effect7-6-0"
       is_visible="true"
       lpeversion="1" /><inkscape:path-effect
       effect="spiro"
       id="path-effect8-3-6"
       is_visible="true"
       lpeversion="1" /><inkscape:path-effect
       effect="spiro"
       id="path-effect9-4-4"
       is_visible="true"
       lpeversion="1" /><inkscape:path-effect
       effect="spiro"
       id="path-effect11-8-6"
       is_visible="true"
       lpeversion="1" /><inkscape:path-effect
       effect="spiro"
       id="path-effect12-0-1"
       is_visible="true"
       lpeversion="1" /><inkscape:path-effect
       effect="spiro"
       id="path-effect13-2-3"
       is_visible="true"
       lpeversion="1" /><inkscape:path-effect
       effect="spiro"
       id="path-effect15-3-1"
       is_visible="true"
       lpeversion="1" /><inkscape:path-effect
       effect="spiro"
       id="path-effect17-1-6"
       is_visible="true"
       lpeversion="1" /><inkscape:path-effect
       effect="spiro"
       id="path-effect18-0-3"
       is_visible="true"
       lpeversion="1" /><inkscape:path-effect
       effect="spiro"
       id="path-effect19-1-4"
       is_visible="true"
       lpeversion="1" /><inkscape:path-effect
       effect="spiro"
       id="path-effect21-68-8"
       is_visible="true"
       lpeversion="1" /><inkscape:path-effect
       effect="spiro"
       id="path-effect22-4-1"
       is_visible="true"
       lpeversion="1" /><inkscape:path-effect
       effect="spiro"
       id="path-effect31-4-5"
       is_visible="true"
       lpeversion="1" /><inkscape:path-effect
       effect="spiro"
       id="path-effect32-1-5"
       is_visible="true"
       lpeversion="1" /><inkscape:path-effect
       effect="spiro"
       id="path-effect39-1-9"
       is_visible="true"
       lpeversion="1" /><inkscape:path-effect
       effect="spiro"
       id="path-effect42-5-7"
       is_visible="true"
       lpeversion="1" /></defs><g
     inkscape:groupmode="layer"
     id="layer2"
     inkscape:label="botones"><g
       id="g46"
       transform="matrix(1.9959366,0,0,2.0017105,12.080668,105.53747)"><path
         style="opacity:0.99;fill:#f2f2f2;fill-opacity:0.984314;stroke:#f2f2f2;stroke-width:0.377953;stroke-opacity:0.133333"
         d="m 171.53667,306.25 c -1.053,-7.38607 -1.17967,-8.81782 -1.40458,-15.875 -0.19699,-6.181 -0.32518,-7.75951 -0.79179,-9.75 -0.43866,-1.87129 -0.5728,-3.30288 -0.63247,-6.75 -0.0938,-5.42062 -0.51656,-9.03377 -1.98236,-16.94348 -3.58746,-19.35856 -4.37745,-26.80509 -5.09821,-48.05652 -0.2959,-8.72445 -0.62258,-14.31189 -1.14011,-19.5 -0.19888,-1.99375 -0.53083,-6.55 -0.73766,-10.125 -0.54366,-9.39692 -1.20006,-13.72167 -2.7828,-18.3347 -1.38796,-4.04531 -2.88375,-6.29167 -4.1879,-6.28936 -0.99113,0.002 -2.07539,0.90205 -2.53465,2.10461 -0.58647,1.53566 -0.38499,3.01617 0.74072,5.44285 1.84446,3.97607 2.67291,8.52656 3.13169,17.2016 0.14179,2.68125 0.3831,6.29956 0.53623,8.04069 0.15314,1.74113 0.23046,3.30961 0.17182,3.48551 -0.1659,0.49769 -2.03993,-1.36049 -7.21218,-7.1512 -2.78093,-3.11345 -6.60672,-7.02521 -9.40086,-9.61211 -2.59136,-2.39916 -6.60629,-6.23196 -8.92207,-8.51734 l -4.21052,-4.15523 0.53516,-6.23266 c 1.15612,-13.46449 2.47977,-19.25774 5.76521,-25.23266 3.03598,-5.52126 7.97011,-10.8103 13.68494,-14.66927 2.18334,-1.47431 17.72461,-9.07541 22.68572,-11.09538 1.7875,-0.72781 5.86992,-2.12131 9.07205,-3.09667 5.38302,-1.639666 10.30353,-3.345008 11.50166,-3.986229 0.47439,-0.253884 0.52973,-0.09741 1.16391,3.290499 3.812,20.36463 4.71608,24.38977 6.6535,29.62272 2.35255,6.35421 2.99529,8.42122 3.51176,11.29357 1.08088,6.01134 2.72045,8.45436 5.84797,8.71372 2.91004,0.24132 4.63583,-1.36036 7.99915,-7.42389 2.27789,-4.10668 5.79157,-9.55389 6.25,-9.6893 0.19967,-0.059 4.55682,11.08109 8.91594,22.79565 l 0.66593,1.78961 -1.75945,3.10249 c -2.23782,3.94599 -5.94924,11.43764 -7.66766,15.47748 -0.73111,1.71875 -2.72035,5.76875 -4.42055,9 -5.42716,10.31441 -9.79092,19.95183 -15.73455,34.75 -8.86091,22.06147 -12.67636,33.24988 -18.12166,53.13998 -3.7187,13.58332 -5.56652,19.86083 -7.57523,25.73502 -1.69682,4.96211 -1.80233,5.4008 -1.92402,8 L 172,309.5 Z"
         id="path28"
         transform="matrix(0.13256099,0,0,0.13217862,-6.0545749,-52.733178)" /><path
         style="opacity:0.99;fill:#f2f2f2;fill-opacity:0.984314;stroke:#f2f2f2;stroke-width:0.755906;stroke-opacity:0.992157"
         d="m 265.2235,445.64094 c -1.22292,-0.88499 -2.35181,-1.78909 -2.50863,-2.00911 -0.37301,-0.52331 -2.30209,-14.73074 -3.20874,-23.63183 -0.70765,-6.94749 -1.25757,-16.7068 -2.26803,-40.25 -0.61333,-14.29052 -1.3039,-21.3878 -3.99238,-41.0313 -3.23929,-23.66799 -4.79625,-40.36023 -6.22315,-66.7187 -0.81489,-15.05309 -1.95515,-52.42225 -1.69213,-55.45533 0.13443,-1.55026 1.24942,1.78762 5.38207,16.11208 2.86688,9.93708 5.34188,18.27101 5.5,18.51985 0.64039,1.00778 18.12334,11.18474 18.50026,10.76914 0.22234,-0.24515 1.55839,-6.63324 2.969,-14.19574 l 2.56474,-13.75 -12.67228,-36 -12.67229,-36 1.4771,-3.5 c 2.38189,-5.6439 7.83904,-17.37681 8.67714,-18.65591 0.73833,-1.12684 0.80254,-1.13824 1.47116,-0.26118 0.38452,0.5044 1.50773,2.97914 2.49602,5.49942 0.98829,2.52029 2.54286,5.44529 3.45459,6.5 1.51279,1.75005 1.8777,1.91767 4.17459,1.91767 3.31017,0 4.26255,-0.91765 8.67497,-8.35871 6.50558,-10.97092 15.61938,-31.9746 18.71964,-43.14129 0.76349,-2.75 1.53169,-5.173964 1.7071,-5.386586 0.17541,-0.212623 1.61721,0.187577 3.20401,0.889333 4.36737,1.931461 9.44833,3.155443 15.54174,3.743943 6.30241,0.60869 17.29285,3.44287 20.89046,5.38716 3.25825,1.7609 9.95537,8.84401 11.78041,12.45938 1.95838,3.87954 5.8133,16.1017 7.31518,23.19308 0.66273,3.12915 1.16198,5.71201 1.10945,5.7397 -4.03389,2.12629 -6.45661,4.84499 -9.01393,10.11516 -2.2061,4.54635 -5.53364,9.24597 -8.44982,11.93401 -2.00106,1.84451 -4.1682,3.06083 -4.62441,2.59548 -0.092,-0.0939 0.0578,-3.07098 0.33293,-6.61582 0.46852,-6.03675 0.43873,-6.52784 -0.47019,-7.75 -1.25182,-1.68324 -2.67525,-1.87495 -3.89766,-0.52495 -1.98762,2.19508 -2.32773,11.46623 -2.52092,68.72011 -0.21925,64.97617 -0.35852,61.91162 5.07851,111.75 3.24715,29.76495 4.38869,37.51607 7.40052,50.25 3.53346,14.9394 4.20257,20.20328 3.33673,26.25 -0.74559,5.20694 -2.49452,8.5779 -5.68801,10.96324 -5.15617,3.85135 -9.39339,5.48583 -27.27818,10.52238 -16.36822,4.60947 -21.4779,5.81984 -27.38695,6.48737 -2.70276,0.30533 -6.88121,0.77886 -9.28542,1.05229 -2.46289,0.2801 -6.13413,1.14712 -8.40911,1.98594 -5.20474,1.91904 -6.70428,1.90005 -9.49609,-0.12028 z m 7.03856,-23.26984 c 1.73441,-2.20494 1.01579,-5.99226 -1.34072,-7.06596 -1.75394,-0.79915 -2.45485,-0.69658 -3.89399,0.56986 -1.70525,1.50061 -2.0476,3.67682 -0.92197,5.8606 1.39695,2.71014 4.28989,3.00875 6.15668,0.6355 z m -5.00107,-46.62698 c 1.12257,-0.60078 1.97624,-3.33551 1.62111,-5.19324 -0.30871,-1.61493 -2.33758,-3.30088 -3.97226,-3.30088 -1.90759,0 -3.65984,2.11134 -3.65984,4.40985 0,3.6411 3.01334,5.68856 6.01099,4.08427 z m -3.47253,-49.95566 c 3.24545,-3.24544 0.45811,-9.153 -3.59207,-7.61312 -4.34049,1.65025 -3.17714,8.82112 1.46707,9.04297 0.36491,0.0174 1.32116,-0.626 2.125,-1.42985 z M 260.10538,279.125 c 1.46445,-1.60001 1.80375,-3.12782 1.14076,-5.13669 -1.54559,-4.6832 -7.49614,-3.21318 -7.49614,1.85185 0,3.74874 4.02613,5.82969 6.35538,3.28484 z"
         id="path29"
         transform="matrix(0.13256099,0,0,0.13217862,-6.0545749,-52.733178)" /><path
         style="opacity:0.99;fill:#f2f2f2;fill-opacity:0.984314;stroke:#f2f2f2;stroke-width:0.755906;stroke-opacity:0.992157"
         d="m 234.5,446.95338 c -14.09652,-3.47203 -32.09323,-8.35654 -36.7096,-9.96339 -9.75766,-3.39642 -17.43148,-8.04135 -23.41278,-14.17167 -3.07645,-3.15309 -4.20181,-4.72348 -11.83536,-16.51569 -2.00305,-3.09428 -5.38805,-7.30381 -8.36534,-10.403 -7.39526,-7.69803 -7.76868,-8.99187 -5.95968,-20.64963 0.53342,-3.4375 1.29457,-8.43426 1.69144,-11.10391 0.509,-3.42394 1.12046,-5.53455 2.07553,-7.16425 0.74467,-1.27069 1.45845,-2.20584 1.58617,-2.07812 0.12772,0.12772 0.54441,3.93749 0.92598,8.46615 0.80657,9.57278 1.7807,13.02642 5.07138,17.97972 2.52706,3.80386 6.1613,6.94936 10.18226,8.81292 1.5125,0.70099 4.06736,2.2441 5.67746,3.42913 1.6101,1.18504 4.8726,3.31723 7.25,4.73821 2.3774,1.42098 4.40475,2.64778 4.50522,2.72623 0.10048,0.0784 0.61438,1.99657 1.142,4.26252 0.52763,2.26595 1.20422,4.41499 1.50354,4.77565 0.8783,1.05829 3.26706,0.79569 4.14343,-0.4555 1.04802,-1.49626 0.99232,-2.45752 -0.51488,-8.88508 l -1.29323,-5.51508 -4.75274,-2.86929 c -2.61401,-1.57812 -6.47581,-4.09315 -8.58177,-5.58897 -2.10597,-1.49582 -5.14663,-3.36188 -6.75702,-4.14681 -3.86026,-1.88154 -7.99902,-5.85428 -9.57958,-9.1953 -1.34969,-2.85301 -1.91501,-6.37864 -2.71338,-16.92195 l -0.49097,-6.48374 3.42469,-3.26626 c 1.88358,-1.79645 3.81799,-3.89204 4.29869,-4.65687 1.27093,-2.02215 1.40405,-1.3898 0.4653,2.21029 -0.56226,2.15625 -0.76322,4.46831 -0.62411,7.18031 0.17275,3.36768 0.47725,4.51253 1.92627,7.2422 4.68219,8.82035 13.08621,13.64035 25.03329,14.35745 4.97759,0.29877 10.8689,-0.64639 13.24352,-2.12469 1.42281,-0.88576 1.85708,-3.36742 0.9635,-5.50605 -0.61369,-1.46879 -0.95837,-1.71804 -2.36871,-1.71297 -0.90779,0.003 -2.88802,0.33809 -4.40052,0.74406 -7.82366,2.09996 -19.04841,-0.67465 -24.20854,-5.98403 -1.22857,-1.26412 -2.81788,-3.49225 -3.53178,-4.95143 l -1.29801,-2.65303 1.01916,-4.57546 c 1.44991,-6.50922 1.36131,-8.44313 -0.48967,-10.68868 l -1.50883,-1.83048 0.62286,-3.28345 c 0.34258,-1.80589 0.77151,-3.28344 0.95319,-3.28344 0.18168,0 0.46786,0.73125 0.63595,1.625 0.44688,2.37612 2.88526,7.29412 5.68704,11.47031 1.34856,2.01008 3.38504,5.22969 4.52552,7.15469 1.14048,1.925 3.27272,4.79375 4.73831,6.375 2.40247,2.59208 2.86485,2.875 4.69853,2.875 1.97646,0 2.35491,-0.31382 13.41615,-11.125 7.41331,-7.24572 12.64041,-12.81836 14.99025,-15.98122 3.42477,-4.60968 3.62526,-5.02851 3.94927,-8.25 0.18774,-1.86658 1.00034,-7.21878 1.80578,-11.89378 0.80545,-4.675 2.03467,-13.5625 2.73161,-19.75 0.69695,-6.1875 1.48788,-12.825 1.75763,-14.75 0.26976,-1.925 0.72903,-6.875 1.02062,-11 0.29158,-4.125 1.53845,-13.9125 2.77082,-21.75 2.59318,-16.49183 3.26222,-20 3.81418,-20 0.21998,0 0.40223,3.99375 0.405,8.875 0.0117,20.59182 2.18572,60.57466 4.5125,82.99023 0.54895,5.28838 1.99277,17.10088 3.20849,26.25 3.36111,25.29461 3.34635,25.11201 4.78235,59.13477 0.53739,12.73222 1.82845,27.24424 3.387,38.07129 l 0.86682,6.02168 -3.06816,1.84537 c -1.68749,1.01495 -3.82625,2.06279 -4.7528,2.32852 -2.90178,0.83222 -8.90737,0.48796 -14.19124,-0.81348 z M 215.87574,378.9206 c 3.26219,-6.22513 3.39648,-13.82697 0.3538,-20.0278 -2.32287,-4.73388 -6.80202,-7.79773 -10.16562,-6.95352 -1.7635,0.44261 -2.73891,3.55223 -1.74811,5.57302 0.70269,1.43319 0.87274,1.55566 4.04031,2.90994 4.25869,1.82078 5.3908,8.36107 2.4801,14.32776 -1.818,3.72675 -1.84352,3.9163 -0.84812,6.29863 0.65826,1.57544 0.91514,1.74946 2.375,1.60894 1.47155,-0.14165 1.82638,-0.51914 3.51264,-3.73697 z"
         id="path32"
         transform="matrix(0.13256099,0,0,0.13217862,-6.0545749,-52.733178)" /><path
         style="opacity:0.99;fill:#f2f2f2;fill-opacity:0.984314;stroke:#f2f2f2;stroke-width:0.755906;stroke-opacity:0.992157"
         d="m 159.98788,268.97552 c -3.0474,-1.34297 -8.0672,-2.44723 -15.75814,-3.46647 -9.15353,-1.21308 -17.80677,-3.95042 -27.03507,-8.55221 -6.90362,-3.44255 -7.90127,-5.42538 -7.24442,-14.39823 0.5215,-7.12388 1.57325,-12.45405 5.53651,-28.05861 3.90254,-15.36544 6.17323,-26.17333 7.73842,-36.83288 0.5262,-3.58363 1.06491,-6.62388 1.19714,-6.75611 0.13223,-0.13223 7.22054,6.75053 15.75179,15.29501 l 15.51138,15.53543 0.15726,5.24311 0.15725,5.24312 -1.25,0.24406 c -0.6875,0.13423 -2.09502,0.38953 -3.12782,0.56734 -4.08987,0.70408 -5.51017,4.61525 -3.92026,10.79546 1.68583,6.55306 4.17861,10.55 7.76696,12.45361 1.6459,0.87315 2.24906,1.51675 2.40274,2.56383 0.19673,1.3404 0.11907,1.39802 -1.88427,1.39802 -2.53877,0 -4.89019,-1.46313 -6.84213,-4.25739 -1.31429,-1.88146 -8.91585,-22.1172 -12.72772,-33.88186 -2.01626,-6.22283 -3.21354,-7.60082 -5.37405,-6.1852 -2.03502,1.3334 -2.01403,3.0469 0.12072,9.85311 2.61615,8.34105 10.29832,29.57913 11.87061,32.81744 1.67177,3.44317 5.22786,7.32877 7.88412,8.61464 1.45513,0.70442 3.1303,1.03926 5.19923,1.03926 2.92773,0 3.06402,0.0562 3.33642,1.375 1.19273,5.7745 3.33074,18.82883 3.2031,19.55756 -0.14813,0.84568 -0.30937,0.83317 -2.66977,-0.20704 z"
         id="path33"
         transform="matrix(0.13256099,0,0,0.13217862,-6.0545749,-52.733178)" /><path
         style="opacity:0.99;fill:#f2f2f2;fill-opacity:0.984314;stroke:#f2f2f2;stroke-width:0.755906;stroke-opacity:0.992157"
         d="m 205.51062,140.49807 c -0.44956,-2.71478 -2.29997,-8.96233 -4.44216,-14.99807 -1.1124,-3.13425 -2.62272,-9.4778 -4.04748,-17 -1.25009,-6.6 -2.38068,-12.472087 -2.51241,-13.049083 -0.17472,-0.765278 0.10132,-1.204379 1.02038,-1.62313 2.13741,-0.973868 6.04463,-4.983244 8.27108,-8.487317 1.16738,-1.837258 3.57882,-5.564949 5.35876,-8.283756 l 3.23627,-4.943286 1.35586,3.693286 c 4.56372,12.431359 9.99086,20.309419 16.99908,24.675956 1.2375,0.77103 2.32897,1.46933 2.42549,1.55177 0.0965,0.0824 -0.38515,0.89591 -1.0704,1.80772 -0.68524,0.91181 -2.72346,4.15911 -4.52938,7.21621 -1.80591,3.0571 -5.62709,8.41124 -8.49149,11.89809 -2.86441,3.48684 -6.64266,8.81847 -8.39612,11.84807 -1.75345,3.0296 -3.56127,5.99959 -4.01736,6.59998 -0.82261,1.08288 -0.8319,1.07562 -1.16012,-0.90644 z"
         id="path34"
         transform="matrix(0.13256099,0,0,0.13217862,-6.0545749,-52.733178)" /><path
         style="opacity:0.99;fill:#f2f2f2;fill-opacity:0.984314;stroke:#f2f2f2;stroke-width:0.755906;stroke-opacity:0.992157"
         d="m 275.84188,144.90539 c -0.2617,-0.49797 -1.09555,-2.46333 -1.853,-4.36748 -0.75746,-1.90415 -2.86482,-6.17573 -4.68304,-9.49241 -2.28146,-4.1617 -4.48664,-9.34204 -7.11647,-16.71779 l -3.81063,-10.68748 4.81063,-2.42117 c 9.13296,-4.596572 13.78722,-8.0016 20.85046,-15.254043 3.59691,-3.693259 6.69066,-6.715017 6.875,-6.715017 0.18435,0 0.33517,0.30727 0.33517,0.682822 0,1.647726 3.80625,8.086137 6.27558,10.615383 l 2.6796,2.744608 -1.25152,4.353593 c -2.50481,8.713344 -8.7192,24.213234 -13.40711,33.439944 -3.56304,7.01277 -7.88604,14.28528 -8.6377,14.5311 -0.32513,0.10632 -0.80526,-0.2141 -1.06697,-0.71206 z"
         id="path35"
         transform="matrix(0.13256099,0,0,0.13217862,-6.0545749,-52.733178)" /><path
         style="opacity:0.99;fill:#f2f2f2;fill-opacity:0.984314;stroke:#f2f2f2;stroke-width:0.755906;stroke-opacity:0.992157"
         d="m 221.60728,78.329168 c -0.95698,-2.106042 -2.34074,-5.506744 -3.07501,-7.557114 l -1.33504,-3.727947 1.15138,-0.891051 c 4.1774,-3.232868 12.86465,-8.693125 15.73662,-9.89105 1.87812,-0.783383 6.11477,-2.056583 9.41477,-2.829332 10.62962,-2.489099 24.40005,-1.834301 31.9122,1.517459 5.02582,2.242411 10.93886,8.472623 12.57454,13.249021 l 0.7531,2.199153 -3.36992,3.758875 c -1.85345,2.067382 -4.18073,4.66963 -5.17172,5.782774 l -1.8018,2.023898 -2.4482,-2.176109 c -1.34651,-1.19686 -3.37248,-2.591365 -4.50216,-3.098901 C 268.97417,75.578298 263.7737,74.772898 259,74.76132 c -3.3568,-0.0081 -18.28818,2.747612 -21.42647,3.954496 -0.78456,0.301716 -3.48993,0.858556 -6.01193,1.237423 -2.52199,0.378866 -5.40195,1.030004 -6.39989,1.446972 l -1.81445,0.758125 z"
         id="path36"
         transform="matrix(0.13256099,0,0,0.13217862,-6.0545749,-52.733178)" /><path
         style="opacity:0.99;fill:#f2f2f2;fill-opacity:0.984314;stroke:#f2f2f2;stroke-width:0.755906;stroke-opacity:0.992157"
         d="m 342.75,251.3171 v -11.88189 l 1.64724,-0.78551 c 4.77613,-2.27758 10.06202,-9.10202 13.90241,-17.94896 2.75804,-6.35358 8.44926,-23.33626 8.44987,-25.21449 9.1e-4,-2.85423 -2.33961,-4.6153 -4.39829,-3.30939 -0.35682,0.22634 -2.18221,4.89165 -4.05642,10.36734 -5.62461,16.43284 -7.89123,21.11423 -12.41376,25.63877 -1.47498,1.47564 -2.75493,2.60064 -2.84434,2.5 -0.0894,-0.10063 -0.32263,-6.37906 -0.51827,-13.95206 l -0.35571,-13.7691 2.48027,-1.16169 c 2.05276,-0.96146 2.91143,-1.82001 4.98166,-4.98091 4.221,-6.44479 6.28997,-10.87107 5.92782,-12.68179 -0.38317,-1.91585 -1.63636,-3.38742 -2.88473,-3.38742 -1.02213,0 -2.16228,1.53395 -6.11155,8.22243 -1.45243,2.45984 -2.903,4.55984 -3.22349,4.66667 -0.4229,0.14096 -0.58271,-1.52036 -0.58271,-6.05771 v -6.25193 l 1.625,-0.34995 c 2.58902,-0.55755 4.38993,-1.67343 7.5441,-4.67448 3.69881,-3.51924 6.74151,-7.75084 9.30306,-12.93815 1.93993,-3.92848 5.35943,-8.0303 6.04681,-7.25336 0.18805,0.21256 0.79859,2.18648 1.35675,4.38648 9.6067,37.86538 12.10226,47.25801 14.59487,54.93122 1.62027,4.98783 3.42038,11.09378 4.00024,13.56878 0.57987,2.475 1.49865,5.79465 2.04174,7.37699 0.54309,1.58235 0.98743,3.09828 0.98743,3.36873 0,0.27046 -0.84375,1.0271 -1.875,1.68142 -1.03125,0.65433 -4.40867,3.30936 -7.50539,5.90006 -6.22275,5.20594 -13.73203,10.11333 -18.65859,12.19355 -2.64352,1.11623 -4.31561,1.42011 -9.46102,1.71945 -3.83756,0.22325 -6.97373,0.67146 -8.125,1.16118 l -1.875,0.7976 z"
         id="path37"
         transform="matrix(0.13256099,0,0,0.13217862,-6.0545749,-52.733178)" /><path
         style="opacity:0.99;fill:#f2f2f2;fill-opacity:0.984314;stroke:#f2f2f2;stroke-width:0.188976;stroke-opacity:0.992157"
         d="m 235.59211,123.56434 -3.2829,-7.85608 1.39414,-2.41663 c 1.76566,-3.06064 2.71075,-4.44981 3.73415,-5.48876 0.77064,-0.78235 1.93458,-1.59745 2.0773,-1.45473 0.0815,0.0815 -0.42262,21.88954 -0.54869,23.73707 l -0.0911,1.33522 z"
         id="path39"
         transform="matrix(0.13256099,0,0,0.13217862,-6.0545749,-52.733178)" /><path
         style="opacity:0.99;fill:#f2f2f2;fill-opacity:0.984314;stroke:#f2f2f2;stroke-width:0.188976;stroke-opacity:0.992157"
         d="m 244.60838,124.875 c 0.0418,-1.1 0.1122,-3.56094 0.15643,-5.46875 0.0442,-1.90781 0.0943,-3.46875 0.11128,-3.46875 0.017,0 0.23282,0.0844 0.47963,0.1875 0.24681,0.10313 0.80514,0.1875 1.24072,0.1875 1.81877,0 3.20275,-1.35462 3.60293,-3.52651 0.35652,-1.93488 -0.58582,-4.04619 -2.17516,-4.87344 -0.5631,-0.2931 -1.78343,-0.3809 -2.55546,-0.18387 l -0.40625,0.10368 v -1.09059 -1.0906 l 3.03125,0.0678 c 2.49568,0.0558 3.15201,0.10869 3.71476,0.29941 0.82677,0.28021 1.30754,0.84974 1.82007,2.15611 l 0.34587,0.88157 -1.0646,1.78449 c -2.43428,4.08033 -5.76768,10.42873 -7.59891,14.47199 -0.35808,0.79063 -0.67975,1.46563 -0.71482,1.5 -0.0351,0.0344 -0.0296,-0.8375 0.0123,-1.9375 z"
         id="path42-8"
         transform="matrix(0.13256099,0,0,0.13217862,-6.0545749,-52.733178)" /><path
         style="opacity:0.99;fill:#f2f2f2;fill-opacity:1;stroke:#f2f2f2;stroke-width:0.534506;stroke-opacity:1"
         d="m 191.32734,346.72253 c -0.9789,-1.12996 -2.7432,-3.68627 -3.92066,-5.68068 -1.17746,-1.99442 -3.07909,-5.00684 -4.22584,-6.69427 -4.66883,-6.87013 -5.41187,-9.75794 -5.3622,-20.84003 0.0292,-6.51492 0.12385,-7.74764 0.70884,-9.23178 1.24271,-3.15278 3.88413,-12.03533 7.83242,-26.33887 5.74279,-20.80453 9.21831,-31.12454 17.48793,-51.92776 6.31435,-15.88448 12.37812,-29.2454 17.32676,-38.17779 0.89063,-1.60761 2.25956,-4.43437 3.04207,-6.28168 2.56078,-6.04542 5.80816,-12.41532 10.54414,-20.68288 5.8524,-10.21646 7.48114,-13.45598 12.17638,-24.2184 3.36803,-7.72018 7.87644,-16.93848 9.22754,-18.86744 0.38466,-0.5492 0.52904,-0.59169 0.66973,-0.19712 0.0987,0.27665 0.88168,2.49174 1.74007,4.92242 0.8584,2.43068 1.99563,5.47121 2.52719,6.75673 l 0.96646,2.33731 -3.50818,7.03185 c -4.05891,8.13575 -7.22658,15.44186 -10.48323,24.1792 -4.51416,12.11112 -6.65041,19.96021 -10.48853,38.53732 -1.18518,5.7364 -2.8649,13.39198 -3.73273,17.01239 -0.86783,3.62042 -1.97725,9.18889 -2.46537,12.37437 -0.48813,3.18549 -1.43518,9.21243 -2.10457,13.3932 -1.58801,9.91822 -1.85332,12.11375 -2.3071,19.09188 -0.20865,3.2085 -0.68513,8.14057 -1.05885,10.96015 -0.37373,2.81959 -1.17297,9.5813 -1.77609,15.02602 -0.60313,5.44473 -1.64677,13.08148 -2.3192,16.97057 -0.67243,3.88908 -1.47177,8.82115 -1.77631,10.96015 -0.54468,3.82571 -0.58633,3.93475 -2.55546,6.69106 -2.52,3.52738 -5.02596,6.25758 -9.07283,9.88468 -1.75009,1.56856 -3.83824,3.65142 -4.64035,4.62858 -0.8021,0.97716 -3.53148,3.72485 -6.06529,6.10597 l -4.60692,4.32932 z"
         id="path44"
         transform="matrix(0.13256099,0,0,0.13217862,-6.0545749,-52.733178)" /><path
         style="opacity:0.99;fill:#f2f2f2;fill-opacity:1;stroke:#f2f2f2;stroke-width:0.534506;stroke-opacity:1"
         d="m 265.9159,249.29695 c -2.01771,-1.22859 -3.79118,-2.45654 -3.94104,-2.72879 -0.14986,-0.27225 -3.72426,-12.37025 -7.94311,-26.88444 l -7.67063,-26.38945 2.95232,-9.11463 2.95232,-9.11463 10.48879,29.85713 10.48878,29.85713 -0.46482,2.28819 c -0.25565,1.2585 -0.9807,5.03264 -1.61121,8.38698 -0.63052,3.35434 -1.2446,6.09374 -1.36462,6.08755 -0.12002,-0.006 -1.86907,-1.01645 -3.88678,-2.24504 z"
         id="path45"
         transform="matrix(0.13256099,0,0,0.13217862,-6.0545749,-52.733178)" /><path
         style="opacity:0.99;fill:#f2f2f2;fill-opacity:1;stroke:#f2f2f2;stroke-width:0.0944882;stroke-opacity:1"
         d="m 233.11527,149.0625 c -0.0278,-0.0687 -1.89436,-4.9625 -4.14781,-10.875 l -4.09718,-10.75 1.80967,-2.01769 c 0.99532,-1.10973 1.82894,-1.99567 1.85249,-1.96875 0.0704,0.0804 8.08245,19.27244 8.07856,19.35129 -0.002,0.04 -0.73432,1.41049 -1.62745,3.04563 -0.89312,1.63513 -1.66747,3.05545 -1.72076,3.15625 -0.0904,0.17089 -0.10032,0.17483 -0.14752,0.0583 z"
         id="path46"
         transform="matrix(0.13256099,0,0,0.13217862,-6.0545749,-52.733178)" /></g></g><g
     inkscape:label="cuerpo"
     inkscape:groupmode="layer"
     id="layer1"
     transform="translate(2.5099455,-1.984693)"><g
       id="g1"
       transform="translate(7.8895481,39.312032)"><g
         id="g4"
         transform="translate(-5.1253799,0.34387421)"><g
           id="g3"
           transform="translate(3.0971579,-0.85120486)" /><g
           id="g6"><g
             id="g2"
             transform="matrix(1.9959366,0,0,2.0017105,6.8103755,67.885477)"><g
               id="g5"
               transform="matrix(2.1101467,0,0,2.1101467,-68.562869,21.857148)"><ellipse
                 style="fill:#000600;fill-opacity:0;stroke:#000000;stroke-width:0.224052;stroke-linecap:round;stroke-opacity:1;paint-order:fill markers stroke"
                 id="path43"
                 cx="46.543934"
                 cy="-9.0752382"
                 rx="0.12011804"
                 ry="0.15957795" /><ellipse
                 style="fill:#000600;fill-opacity:0;stroke:#000000;stroke-width:0.224052;stroke-linecap:round;stroke-opacity:1;paint-order:fill markers stroke"
                 id="path43-2"
                 cx="46.275906"
                 cy="-12.054287"
                 rx="0.12011804"
                 ry="0.15957795" /><path
                 style="fill:#000600;fill-opacity:0;stroke:#000000;stroke-width:0.765;stroke-opacity:1"
                 d="m 111.26672,124.36832 c -0.56374,0.36771 -1.07585,0.81445 -1.51668,1.32306 -0.37529,0.433 -0.70968,0.92004 -1.19399,1.22626 -0.27767,0.17557 -0.59203,0.28294 -0.90356,0.38724 -0.23551,0.0789 -0.47137,0.15685 -0.70994,0.22589 -0.8924,0.25825 -1.81755,0.38966 -2.71067,0.6454 -0.61815,0.177 -1.21769,0.41263 -1.82737,0.61691 -0.42596,0.14272 -0.85787,0.27051 -1.27055,0.44799 -0.27867,0.11985 -0.54752,0.26195 -0.80674,0.41951 -0.812102,0.49361 -1.54815,1.1655 -1.936199,2.03301 -0.328714,0.73487 -0.387811,1.55644 -0.48405,2.3557 -0.198474,1.64831 -0.574519,3.27577 -1.129445,4.8405 -0.489692,1.38079 -1.127676,2.76262 -1.09718,4.22735 0.0046,0.22136 0.02658,0.44915 0.12908,0.64541 0.09558,0.18301 0.255687,0.32605 0.433025,0.43179 0.177339,0.10573 0.372641,0.17717 0.567343,0.24587 0.584129,0.2061 1.175228,0.39321 1.774846,0.54859 0.531276,0.13767 1.069458,0.25042 1.6135,0.3227 1.02597,0.13631 2.08169,0.13078 3.06564,0.45178 0.22136,0.0722 0.44282,0.16392 0.61313,0.3227 0.12038,0.11223 0.21066,0.25449 0.27297,0.40682 0.0623,0.15233 0.0974,0.31477 0.11647,0.47824 0.0381,0.32696 0.0131,0.65787 0.0301,0.9866 0.0376,0.72999 0.28056,1.43492 0.35497,2.16208 0.0733,0.71672 -0.0321,1.47965 -0.45178,2.06528 -0.2505,0.34958 -0.59913,0.61808 -0.9681,0.83902 -0.3004,0.17988 -0.61744,0.33172 -0.9106,0.52317 -0.29317,0.19144 -0.56642,0.42856 -0.73516,0.73535 -0.12831,0.23329 -0.19087,0.4969 -0.23302,0.75979 -0.0421,0.26288 -0.0653,0.52901 -0.12195,0.78917 -0.0526,0.24162 -0.13353,0.47623 -0.18944,0.71709 -0.0559,0.24087 -0.0864,0.49289 -0.0365,0.73506 0.0382,0.18533 0.12288,0.3593 0.23333,0.51295 0.11045,0.15366 0.24635,0.28771 0.39234,0.40812 0.29196,0.24081 0.62424,0.42819 0.92329,0.66015 0.6924,0.53705 1.18094,1.29096 1.80712,1.90393 0.60223,0.58952 1.32822,1.04358 2.09754,1.38761 1.27518,0.57024 2.66044,0.84162 4.03374,1.09717 0.93547,0.17407 1.87192,0.34282 2.80749,0.51632 0.73558,0.13641 1.48022,0.27639 2.22663,0.22589 0.40087,-0.0271 0.80224,-0.11095 1.16171,-0.29043 0.10448,-0.0522 0.205,-0.11217 0.31073,-0.16175 0.10574,-0.0496 0.21813,-0.0889 0.33467,-0.0964 0.19764,-0.0127 0.38937,0.0667 0.56408,0.15999 0.17472,0.0933 0.34332,0.20291 0.5331,0.25952 0.2374,0.0708 0.49304,0.0536 0.73549,0.003 0.24245,-0.0509 0.47676,-0.13443 0.71666,-0.19628 0.70286,-0.1812 1.43814,-0.17344 2.16208,-0.22589 1.45975,-0.10576 2.88827,-0.45895 4.32417,-0.74221 1.14649,-0.22617 2.31384,-0.41189 3.38834,-0.87128 0.36,-0.15391 0.71671,-0.34525 0.9681,-0.6454 0.24175,-0.28863 0.36868,-0.65959 0.41951,-1.03264 0.0786,-0.57714 -0.0141,-1.16556 -0.16819,-1.72728 -0.1541,-0.56172 -0.36898,-1.1048 -0.54175,-1.66106 -0.42913,-1.38163 -0.59425,-2.82858 -0.80675,-4.25963 -0.10235,-0.68922 -0.2161,-1.3767 -0.3227,-2.06528 -0.20216,-1.30591 -0.37872,-2.61748 -0.45177,-3.93693 -0.01,-0.17158 -0.0172,-0.34413 0.002,-0.5149 0.0192,-0.17078 0.0664,-0.34097 0.15942,-0.48547 0.0845,-0.13124 0.20455,-0.23756 0.33911,-0.31664 0.13455,-0.0791 0.28343,-0.13171 0.43536,-0.16741 0.53596,-0.12592 1.09784,-0.0431 1.64577,-0.0968 0.57137,-0.056 1.11743,-0.2594 1.64577,-0.48405 0.63369,-0.26945 1.25424,-0.5728 1.83938,-0.93582 0.30752,-0.19078 0.60645,-0.39867 0.93583,-0.54859 0.10409,-0.0474 0.21128,-0.089 0.30937,-0.14781 0.0981,-0.0588 0.18814,-0.1371 0.23922,-0.23943 0.0358,-0.0716 0.051,-0.15252 0.0501,-0.23256 -8.5e-4,-0.08 -0.0174,-0.15938 -0.0425,-0.2354 -0.0501,-0.15205 -0.13358,-0.29053 -0.2013,-0.4356 -0.13967,-0.29921 -0.21174,-0.62483 -0.3227,-0.93583 -0.13919,-0.3901 -0.33883,-0.75522 -0.51632,-1.12945 -0.23378,-0.49291 -0.42964,-1.00293 -0.61313,-1.51668 -0.22197,-0.62149 -0.42615,-1.2492 -0.6454,-1.87166 -0.19784,-0.5617 -0.40791,-1.11899 -0.61312,-1.67804 -0.17234,-0.46949 -0.34136,-0.94053 -0.48405,-1.41987 -0.1379,-0.46325 -0.25129,-0.93449 -0.41951,-1.38761 -0.11407,-0.30726 -0.2528,-0.60465 -0.38724,-0.90356 -0.18232,-0.40536 -0.36079,-0.82032 -0.6454,-1.16172 -0.22023,-0.26418 -0.49657,-0.47503 -0.77448,-0.67766 -0.26588,-0.19386 -0.53785,-0.38375 -0.83901,-0.51632 -0.3637,-0.1601 -0.75882,-0.23189 -1.14802,-0.31205 -0.39684,-0.0817 -0.79222,-0.17352 -1.19399,-0.22589 -0.55326,-0.0721 -1.1142,-0.0689 -1.66771,-0.13904 -0.59105,-0.0749 -1.16874,-0.23297 -1.73433,-0.4202 -0.33469,-0.11079 -0.66874,-0.2333 -0.9681,-0.41951 -0.36638,-0.2279 -0.67504,-0.55156 -0.87129,-0.93583 -0.22656,-0.44363 -0.30093,-0.9554 -0.54859,-1.38761 -0.14862,-0.25936 -0.35529,-0.48152 -0.58086,-0.67766 -0.34414,-0.29923 -0.73719,-0.54335 -1.16171,-0.70994 -0.53386,-0.20949 -1.1078,-0.294 -1.67804,-0.35497 -0.66437,-0.071 -1.33429,-0.11222 -2.00074,-0.0645 -0.42199,0.0302 -0.84054,0.0959 -1.25852,0.16135 -0.35654,0.0558 -0.71349,0.11153 -1.06491,0.19362 -0.60102,0.1404 -1.18396,0.35795 -1.73001,0.64564 z"
                 id="path2"
                 inkscape:path-effect="#path-effect2-6-2"
                 inkscape:original-d="m 111.26672,124.36832 c -0.40875,0.18286 -1.01112,0.90356 -1.51668,1.32306 -0.50556,0.41951 -0.80675,0.80675 -1.19399,1.22626 -0.38724,0.41951 -0.60237,0.2474 -0.90356,0.38724 -0.30119,0.13984 -0.46253,0.15059 -0.70994,0.22589 -0.2474,0.0753 -1.80711,0.43026 -2.71067,0.6454 -0.90356,0.21513 -1.24651,0.35875 -1.82737,0.61691 -0.58086,0.25816 -0.81876,0.36194 -1.27055,0.44799 -0.45177,0.0861 -0.52707,0.29044 -0.80674,0.41951 -0.27967,0.12908 -1.301556,1.33383 -1.936199,2.03301 -0.634643,0.69918 -0.322699,1.57047 -0.48405,2.3557 -0.161348,0.78524 -0.76372,3.227 -1.129445,4.8405 -0.365729,1.61349 -0.720696,2.81824 -1.09718,4.22735 -0.376481,1.40913 0.09681,0.44103 0.12908,0.64541 0.03227,0.20437 0.666911,0.44102 1.000368,0.67766 0.333457,0.23665 1.18323,0.36573 1.774846,0.54859 0.591617,0.18287 1.064909,0.21513 1.6135,0.3227 0.54859,0.10757 2.05452,0.3227 3.06564,0.45178 1.01112,0.12908 0.398,0.21513 0.61313,0.3227 0.21513,0.10757 0.30119,1.23701 0.41951,1.87166 0.11832,0.63464 0.21513,1.43063 0.35497,2.16208 0.13983,0.73145 -0.31195,1.38761 -0.45178,2.06528 -0.13984,0.67766 -0.63464,0.54858 -0.9681,0.83902 -0.33345,0.29043 -1.09718,0.86053 -1.64576,1.25852 -0.54859,0.398 -0.24741,1.03264 -0.35497,1.54896 -0.10757,0.51632 -0.12908,0.94658 -0.2259,1.45215 -0.0968,0.50556 1.0434,1.0649 1.54896,1.58122 0.50556,0.51632 1.18323,1.26929 1.80712,1.90393 0.62389,0.63464 1.40912,0.91431 2.09754,1.38761 0.68843,0.47329 2.6569,0.73145 4.03374,1.09717 1.37686,0.36573 1.89318,0.34422 2.80749,0.51632 0.91431,0.17211 1.48442,0.1506 2.22663,0.22589 0.7422,0.0753 0.79599,-0.19362 1.16171,-0.29043 0.36573,-0.0968 0.40875,-0.1721 0.6454,-0.25816 0.23665,-0.0861 0.73145,0.26892 1.09718,0.41951 0.36573,0.15059 0.98961,-0.11832 1.45215,-0.19362 0.46253,-0.0753 1.44139,-0.15059 2.16208,-0.22589 0.7207,-0.0753 2.86127,-0.4948 4.32417,-0.74221 1.4629,-0.2474 2.26965,-0.59161 3.38834,-0.87128 1.1187,-0.27968 0.6454,-0.43027 0.9681,-0.6454 0.3227,-0.21513 0.26892,-0.68843 0.41951,-1.03264 0.15059,-0.34421 -0.47329,-2.2589 -0.70994,-3.38834 -0.23664,-1.12945 -0.53783,-2.829 -0.80675,-4.25963 -0.26891,-1.43064 -0.21513,-1.37686 -0.3227,-2.06528 -0.10756,-0.68842 -0.30118,-2.62462 -0.45177,-3.93693 -0.1506,-1.31231 0.11832,-0.65616 0.16135,-1.00037 0.043,-0.34421 0.50556,-0.33345 0.77447,-0.48405 0.26892,-0.15059 1.10794,-0.0645 1.64577,-0.0968 0.53783,-0.0323 1.10794,-0.30118 1.64577,-0.48405 0.53783,-0.18286 1.22625,-0.62388 1.83938,-0.93582 0.61313,-0.31195 0.62389,-0.36573 0.93583,-0.54859 0.31194,-0.18287 0.36573,-0.25816 0.54859,-0.38724 0.18286,-0.12908 -0.12908,-0.60237 -0.19362,-0.90356 -0.0645,-0.30119 -0.21513,-0.6454 -0.3227,-0.93583 -0.10757,-0.29043 -0.34421,-0.73145 -0.51632,-1.12945 -0.1721,-0.39799 -0.41951,-1.02188 -0.61313,-1.51668 -0.19362,-0.49481 -0.43026,-1.24777 -0.6454,-1.87166 -0.21513,-0.62389 -0.40875,-1.12945 -0.61312,-1.67804 -0.20438,-0.54859 -0.31195,-0.94658 -0.48405,-1.41987 -0.17211,-0.4733 -0.30119,-0.91432 -0.41951,-1.38761 -0.11832,-0.47329 -0.25816,-0.59161 -0.38724,-0.90356 -0.12908,-0.31194 -0.41951,-0.77448 -0.6454,-1.16172 -0.22589,-0.38723 -0.51632,-0.45177 -0.77448,-0.67766 -0.25816,-0.22589 -0.54859,-0.34422 -0.83901,-0.51632 -0.29044,-0.17211 -0.7823,-0.1507 -1.14802,-0.31205 -0.36573,-0.16135 -0.796,-0.13984 -1.19399,-0.22589 -0.398,-0.0861 -1.14063,-0.0207 -1.66771,-0.13904 -0.52707,-0.11832 -1.13196,-0.4202 -1.73433,-0.4202 -0.60237,0 -0.62389,-0.27967 -0.9681,-0.41951 -0.34422,-0.13983 -0.59162,-0.63464 -0.87129,-0.93583 -0.27967,-0.30118 -0.36572,-0.91431 -0.54859,-1.38761 -0.18286,-0.47329 -0.38724,-0.45177 -0.58086,-0.67766 -0.19362,-0.22589 -0.76372,-0.48405 -1.16171,-0.70994 -0.398,-0.22589 -1.12945,-0.22589 -1.67804,-0.35497 -0.54859,-0.12908 -1.34458,-0.043 -2.00074,-0.0645 -0.65615,-0.0215 -0.82826,0.10757 -1.25852,0.16135 -0.43027,0.0538 -0.69919,0.12908 -1.06491,0.19362 -0.36573,0.0645 -1.57206,0.6306 -1.73001,0.64564 -0.0652,0.19719 -0.87085,0.43792 -1.07748,0.5483 z"
                 transform="matrix(0.4408588,0,0,0.61534063,-5.8413476,-107.92997)"
                 sodipodi:nodetypes="ssssssscssssssssssssssssssssssssssssssssssssssssssssssssssssssssscssssssssssccs" /><path
                 style="fill:#000600;fill-opacity:0;stroke:#000000;stroke-width:0.765;stroke-opacity:1"
                 d="m 110.38285,124.39913 c 0.17921,0.43613 0.39066,0.85902 0.63203,1.26407 0.25859,0.43394 0.5547,0.85099 0.92946,1.18971 0.46447,0.41979 1.03782,0.70707 1.63586,0.89228 0.86261,0.26715 1.79175,0.32784 2.67684,0.14871 0.5771,-0.11679 1.12907,-0.33233 1.67304,-0.55767 0.5229,-0.21661 1.04385,-0.4444 1.52431,-0.74357 0.54107,-0.33691 1.02274,-0.75924 1.52432,-1.15254 0.19506,-0.15295 0.3934,-0.30171 0.59485,-0.44614"
                 id="path4"
                 inkscape:path-effect="#path-effect5-5-8"
                 inkscape:original-d="m 110.38285,124.39913 c 0.21068,0.42135 0.42135,0.84271 0.63203,1.26407 0.21068,0.42135 0.61964,0.79314 0.92946,1.18971 0.30982,0.39657 1.09057,0.59485 1.63586,0.89228 0.54528,0.29743 1.79695,0.0991 2.67684,0.14871 0.8799,0.0496 1.11536,-0.38417 1.67304,-0.55767 0.55767,-0.1735 1.00382,-0.48332 1.52431,-0.74357 0.5205,-0.26025 1.01621,-0.76836 1.52432,-1.15254 0.5081,-0.38417 0.39657,-0.29742 0.59485,-0.44614"
                 transform="matrix(0.4408588,0,0,0.61534063,-5.6122705,-107.75221)" /><path
                 style="fill:#000600;fill-opacity:0;stroke:#000000;stroke-width:0.765;stroke-opacity:1"
                 d="m 107.14832,127.15033 c 0.1808,0.70772 0.3667,1.41414 0.55768,2.11918 0.11285,0.41661 0.22826,0.83492 0.40896,1.22689 0.21179,0.45942 0.51341,0.88382 0.63204,1.3756 0.0281,0.11668 0.0457,0.23635 0.0863,0.34931 0.0406,0.11295 0.10787,0.22155 0.21113,0.28272 0.0788,0.0467 0.17409,0.0623 0.26506,0.0514 0.091,-0.0109 0.17778,-0.0473 0.25433,-0.0977 0.15311,-0.10071 0.26343,-0.25291 0.3729,-0.39988 0.28379,-0.38099 0.58584,-0.75012 0.92946,-1.07817 0.38123,-0.36395 0.81076,-0.67467 1.18971,-1.041 0.29694,-0.28705 0.56078,-0.60627 0.81792,-0.92946 0.14454,-0.18167 0.28785,-0.36556 0.45598,-0.52564 0.16814,-0.16009 0.36363,-0.29677 0.58502,-0.36665 0.20302,-0.0641 0.41919,-0.0698 0.63204,-0.0744 0.34697,-0.008 0.6942,-0.0135 1.04099,0 0.17917,0.007 0.36553,0.0213 0.5205,0.11153 0.11337,0.066 0.20173,0.16855 0.27081,0.28006 0.0691,0.11151 0.12058,0.23278 0.17533,0.35198 0.12724,0.27702 0.27313,0.54501 0.40896,0.81792 0.20027,0.40239 0.37987,0.81765 0.63204,1.18971 0.30353,0.44783 0.70774,0.82623 0.96664,1.30125 0.095,0.17427 0.16997,0.36084 0.28861,0.51994 0.0593,0.0796 0.12966,0.15183 0.21293,0.20581 0.0833,0.054 0.18002,0.0891 0.27921,0.0922 0.14825,0.005 0.29145,-0.0624 0.40685,-0.15562 0.1154,-0.0932 0.2073,-0.21156 0.29954,-0.32771 0.28529,-0.35925 0.58427,-0.7079 0.8551,-1.07817 0.37166,-0.50813 0.68814,-1.05399 1.00382,-1.59867 0.27537,-0.47512 0.55118,-0.95111 0.78075,-1.44997 0.17721,-0.38509 0.32645,-0.78304 0.44614,-1.1897"
                 id="path5"
                 inkscape:path-effect="#path-effect6-7-8"
                 inkscape:original-d="m 107.14832,127.15033 c 0.1859,0.70639 0.37179,1.41278 0.55768,2.11918 0.18589,0.70639 0.27264,0.81792 0.40896,1.22689 0.13632,0.40896 0.43375,0.94185 0.63204,1.3756 0.19828,0.43375 0.1611,0.39657 0.29742,0.63203 0.13633,0.23547 0.61964,-0.30982 0.89229,-0.44614 0.27264,-0.13632 0.64442,-0.70639 0.92946,-1.07817 0.28503,-0.37179 0.78075,-0.694 1.18971,-1.041 0.40896,-0.347 0.55767,-0.64443 0.81792,-0.92946 0.26025,-0.28504 0.65682,-0.57007 1.041,-0.89229 0.38418,-0.32221 0.43375,-0.0496 0.63204,-0.0744 0.19828,-0.0248 0.69399,0 1.04099,0 0.347,0 0.347,0.0744 0.5205,0.11153 0.1735,0.0372 0.32222,0.44614 0.44614,0.63204 0.12393,0.18589 0.26025,0.52049 0.40896,0.81792 0.14872,0.29743 0.40897,0.79314 0.63204,1.18971 0.22307,0.39657 0.64443,0.8675 0.96664,1.30125 0.32221,0.43375 0.5205,0.53289 0.78075,0.81793 0.26025,0.28503 0.49571,-0.30983 0.70639,-0.48333 0.21068,-0.17349 0.55767,-0.71878 0.8551,-1.07817 0.29743,-0.35939 0.64443,-1.06578 1.00382,-1.59867 0.35939,-0.5329 0.53289,-0.99143 0.78075,-1.44997 0.24786,-0.45853 0.29743,-0.76835 0.44614,-1.1897"
                 transform="matrix(0.4408588,0,0,0.61534063,-5.6122705,-107.75221)" /><path
                 style="fill:#000600;fill-opacity:0;stroke:#000000;stroke-width:0.765;stroke-linecap:round;stroke-opacity:1"
                 d="m 102.34392,153.92294 -0.0788,-0.60403 0.0788,0.63029 0.10504,0.91918 c -0.01,0.39647 0.10161,0.79508 0.31515,1.12927 0.18119,0.28355 0.43201,0.51812 0.70908,0.70908 0.36381,0.25074 0.77656,0.4302 1.20806,0.52525 l 0.91918,0.47272 1.44443,0.63029 0.28888,0.89292"
                 id="path11"
                 inkscape:path-effect="#path-effect12-0-1"
                 inkscape:original-d="m 102.34392,153.92294 -0.0788,-0.60403 c 0.0263,0.16632 0.10505,0.84914 0.0788,0.63029 0.0263,0.19259 0.14006,1.22557 0.10504,0.91918 0.035,0.28013 0.21886,0.75285 0.31515,1.12927 0.0963,0.37643 0.46397,0.46397 0.70908,0.70908 0.24512,0.24512 1.602,0.70033 1.20806,0.52525 0.36768,0.17508 1.22558,0.63029 0.91918,0.47272 0.28013,0.15757 1.94341,0.84039 1.44443,0.63029 0.52524,0.2101 0.20134,0.59528 0.28888,0.89292"
                 transform="matrix(0.4408588,0,0,0.61534063,-5.6470042,-107.83302)" /><path
                 style="fill:#000600;fill-opacity:0;stroke:#000000;stroke-width:0.765;stroke-linecap:round;stroke-opacity:1;paint-order:fill markers stroke"
                 d="m 109.39532,153.87041 c 0.40579,0.0207 0.79661,0.2412 1.02423,0.57777 0.12331,0.18234 0.19988,0.39601 0.22042,0.61517 0.0206,0.21916 -0.015,0.44334 -0.10224,0.64542 l -0.35454,0.52524"
                 id="path14"
                 inkscape:path-effect="#path-effect15-3-1"
                 inkscape:original-d="m 109.39532,153.87041 c 0.33266,0.17508 0.67845,0.37643 1.02423,0.57777 0.34579,0.20135 0.16633,1.68079 0.11818,1.26059 0.0744,0.4202 -0.2276,0.35016 -0.35454,0.52524"
                 transform="matrix(0.4408588,0,0,0.61534063,-5.6122705,-107.75221)" /><path
                 style="fill:#000600;fill-opacity:0;stroke:#000000;stroke-width:0.765;stroke-opacity:1"
                 d="m 114.45081,138.29691 c -0.005,2.17256 0.0655,4.34528 0.21009,6.51303 0.14198,2.12902 0.35614,4.25568 0.73534,6.35546 0.23691,1.31185 0.53832,2.61412 0.68282,3.93934 0.1255,1.151 0.13173,2.31144 0.2101,3.46661 0.1032,1.52103 0.33183,3.03353 0.68282,4.51711"
                 id="path30"
                 inkscape:path-effect="#path-effect31-4-5"
                 inkscape:original-d="m 114.45081,138.29691 c 0.07,2.17101 0.14006,4.34202 0.21009,6.51303 0.07,2.17102 0.49023,4.272 0.73534,6.35546 0.24512,2.08347 0.45522,2.59121 0.68282,3.93934 0.22761,1.34813 0.14007,2.31108 0.2101,3.46661 0.07,1.15554 0.45521,3.01141 0.68282,4.51711"
                 transform="matrix(0.4408588,0,0,0.61534063,-5.6122705,-107.75221)" /><path
                 style="fill:#000600;fill-opacity:0;stroke:#000000;stroke-width:0.765;stroke-opacity:1"
                 d="m 111.82458,126.45264 c 0.19291,-0.0854 0.39624,-0.1473 0.60403,-0.18383 0.26863,-0.0472 0.54269,-0.052 0.81413,-0.0788 0.34746,-0.0343 0.69133,-0.10482 1.02423,-0.2101 0.28996,-0.0252 0.57906,-0.0603 0.86665,-0.10504 0.41114,-0.064 0.81978,-0.14798 1.23433,-0.18384 0.44631,-0.0386 0.89745,-0.0209 1.33937,0.0525 0.36251,-0.01 0.72721,0.072 1.05049,0.23636 0.0911,0.0463 0.17891,0.099 0.26262,0.15758 l 0.47272,0.31514"
                 id="path38"
                 inkscape:path-effect="#path-effect39-1-9"
                 inkscape:original-d="m 111.82458,126.45264 c 0.18384,-0.0438 0.4202,-0.14006 0.60403,-0.18383 0.18384,-0.0438 0.52525,-0.035 0.81413,-0.0788 0.28889,-0.0438 1.35688,-0.28013 1.02423,-0.2101 0.30639,-0.07 0.58652,-0.07 0.86665,-0.10504 0.28013,-0.035 0.80538,-0.12256 1.23433,-0.18384 0.42895,-0.0613 1.77707,0.07 1.33937,0.0525 0.41144,0.0175 0.69157,0.15758 1.05049,0.23636 0.35892,0.0788 0.34141,0.2101 0.26262,0.15758 0.0525,0.0525 0.3064,0.2101 0.47272,0.31514"
                 transform="matrix(0.4408588,0,0,0.61534063,-5.6122705,-107.75221)" /><ellipse
                 style="fill:#000600;fill-opacity:0;stroke:#000000;stroke-width:0.224052;stroke-linecap:round;stroke-opacity:1;paint-order:fill markers stroke"
                 id="path43-21"
                 cx="46.042618"
                 cy="-15.147653"
                 rx="0.12011804"
                 ry="0.15957795" /><ellipse
                 style="fill:#000600;fill-opacity:0;stroke:#000000;stroke-width:0.224052;stroke-linecap:round;stroke-opacity:1;paint-order:fill markers stroke"
                 id="path43-3"
                 cx="45.809334"
                 cy="-18.07822"
                 rx="0.12011804"
                 ry="0.15957795" /><ellipse
                 style="fill:#000600;fill-opacity:0;stroke:#000000;stroke-width:0.224052;stroke-linecap:round;stroke-opacity:1;paint-order:fill markers stroke"
                 id="path43-9"
                 cx="45.109463"
                 cy="-28.335186"
                 rx="0.12011804"
                 ry="0.15957795" /><path
                 style="fill:#000600;fill-opacity:0;stroke:#000000;stroke-width:0.765;stroke-linecap:round;stroke-opacity:1"
                 d="m 101.68309,133.80528 c 0.11782,0.1619 0.21776,0.3368 0.29743,0.5205 0.14284,0.32935 0.21952,0.68432 0.26025,1.04099 0.0367,0.3211 0.0448,0.64479 0.0743,0.96664 0.0364,0.39802 0.10538,0.79239 0.14872,1.18972 0.0391,0.35818 0.0573,0.71827 0.0743,1.07817 0.0223,0.47106 0.0426,0.94227 0.0744,1.41278 0.0387,0.57233 0.0945,1.1439 0.18589,1.71021 0.10921,0.67709 0.26894,1.34509 0.44615,2.00764 0.11821,0.44193 0.2447,0.884 0.29742,1.33842 0.0372,0.32078 0.0372,0.64586 0,0.96664"
                 id="path6"
                 inkscape:path-effect="#path-effect7-6-0"
                 inkscape:original-d="m 101.68309,133.80528 c 0.13632,0.1735 0.19829,0.347 0.29743,0.5205 0.0991,0.1735 0.18589,0.694 0.26025,1.04099 0.0743,0.347 0.0496,0.65682 0.0743,0.96664 0.0248,0.30983 0.0991,0.79314 0.14872,1.18972 0.0496,0.39656 0.0496,0.71878 0.0743,1.07817 0.0248,0.35939 0.0496,0.92946 0.0744,1.41278 0.0248,0.48332 0.12393,1.15253 0.18589,1.71021 0.062,0.55768 0.29743,1.32603 0.44615,2.00764 0.14871,0.6816 0.19828,0.89228 0.29742,1.33842 0.0991,0.44614 0,0.64443 0,0.96664"
                 transform="matrix(0.4408588,0,0,0.61534063,-5.6122705,-107.75221)" /><path
                 style="fill:#000600;fill-opacity:0;stroke:#000000;stroke-width:0.765;stroke-linecap:round;stroke-opacity:1"
                 d="m 98.783168,137.96927 c 0.181804,0.44103 0.380279,0.87519 0.594857,1.30124 0.244338,0.48514 0.509544,0.95976 0.743565,1.44996 0.22672,0.4749 0.43403,0.97849 0.81793,1.33843 0.23329,0.21872 0.52531,0.3742 0.83702,0.44563 0.31171,0.0714 0.6423,0.0586 0.94755,-0.0367"
                 id="path7"
                 inkscape:path-effect="#path-effect8-3-6"
                 inkscape:original-d="m 98.783168,137.96927 c 0.223073,0.43374 0.408964,0.86749 0.594857,1.30124 0.185891,0.43375 0.520497,0.97904 0.743565,1.44996 0.22307,0.47093 0.5205,0.87989 0.81793,1.33843 0.29743,0.45853 1.18971,0.27264 1.78457,0.40896"
                 transform="matrix(0.4408588,0,0,0.61534063,-5.6122705,-107.75221)" /><path
                 style="fill:#000600;fill-opacity:0;stroke:#000000;stroke-width:0.765;stroke-opacity:1"
                 d="m 97.481923,134.40013 c 0.413203,0.30876 0.834765,0.60634 1.264068,0.89229 0.512208,0.34117 1.036105,0.66628 1.524319,1.04099 0.31476,0.24158 0.61382,0.50313 0.92946,0.74357 0.36406,0.27733 0.7498,0.52619 1.15253,0.74357"
                 id="path8"
                 inkscape:path-effect="#path-effect9-4-4"
                 inkscape:original-d="m 97.481923,134.40013 c 0.396571,0.28504 0.867498,0.60725 1.264068,0.89229 0.396568,0.28503 0.991426,0.6816 1.524319,1.04099 0.53289,0.35939 0.59485,0.49572 0.92946,0.74357 0.3346,0.24786 0.79314,0.49572 1.15253,0.74357"
                 transform="matrix(0.4408588,0,0,0.61534063,-5.6122705,-107.75221)" /><path
                 style="fill:#000600;fill-opacity:0;stroke:#000000;stroke-width:0.765;stroke-opacity:1"
                 d="m 102.54749,141.43616 c -0.21405,-0.0303 -0.42031,-0.11412 -0.59486,-0.24166 -0.15176,-0.11089 -0.27945,-0.25454 -0.37178,-0.41826 -0.0657,-0.0964 -0.12179,-0.19932 -0.16731,-0.30672 -0.0506,-0.11937 -0.0881,-0.24429 -0.11153,-0.37179 -0.0229,-0.0367 -0.0338,-0.0808 -0.0304,-0.12389 0.003,-0.0431 0.0208,-0.085 0.049,-0.11777 0.0352,-0.0408 0.0855,-0.0662 0.13753,-0.0804 0.052,-0.0142 0.10615,-0.018 0.1599,-0.0219 0.12118,-0.009 0.24246,-0.0183 0.36249,-0.0372 0.12931,-0.0203 0.25692,-0.0514 0.38108,-0.0929"
                 id="path10"
                 inkscape:path-effect="#path-effect11-8-6"
                 inkscape:original-d="m 102.54749,141.43616 c -0.19829,-0.0744 -0.39657,-0.15801 -0.59486,-0.24166 -0.19828,-0.0837 -0.49261,-0.55458 -0.37178,-0.41826 -0.11154,-0.12703 -0.10844,-0.20138 -0.16731,-0.30672 -0.0589,-0.10534 -0.15181,-0.48952 -0.11153,-0.37179 -0.0496,-0.0991 0.009,-0.15491 0.0186,-0.24166 0.009,-0.0867 0.19828,-0.0682 0.29743,-0.10224 0.0991,-0.0341 0.24166,-0.0248 0.36249,-0.0372 0.12083,-0.0124 0.25405,-0.062 0.38108,-0.0929"
                 transform="matrix(0.4408588,0,0,0.61534063,-5.6122705,-107.75221)" /><path
                 style="fill:#000600;fill-opacity:0;stroke:#000000;stroke-width:0.765;stroke-linecap:round;stroke-opacity:1"
                 d="m 104.36611,152.24216 -0.39394,-0.34141 0.36768,0.34141 c -0.0128,0.13353 -0.0393,0.26575 -0.0788,0.39393 -0.0647,0.2097 -0.16494,0.41166 -0.18384,0.63029 -0.0175,0.20306 0.0394,0.41174 0.15758,0.57777 0.23702,0.32925 0.54323,0.60845 0.89291,0.81413 0.30931,0.18193 0.65012,0.30579 0.99797,0.39394 0.2932,0.0743 0.59233,0.1238 0.89291,0.15757 0.38345,0.0431 0.76976,0.0606 1.15554,0.0525 l 1.05049,-0.18383"
                 id="path12"
                 inkscape:path-effect="#path-effect13-2-3"
                 inkscape:original-d="m 104.36611,152.24216 -0.39394,-0.34141 c 0.16633,0.0963 0.48148,0.46396 0.36768,0.34141 0.14006,0.12255 -0.0438,0.26262 -0.0788,0.39393 -0.035,0.13131 -0.1138,0.42895 -0.18384,0.63029 -0.07,0.20135 0.21886,0.78787 0.15758,0.57777 0.0613,0.23636 0.59527,0.55151 0.89291,0.81413 0.29764,0.26262 0.66531,0.26262 0.99797,0.39394 0.33265,0.13131 0.60403,0.0963 0.89291,0.15757 0.28889,0.0613 1.54072,0.0613 1.15554,0.0525 0.35892,0.009 0.69157,-0.12255 1.05049,-0.18383"
                 transform="matrix(0.4408588,0,0,0.61534063,-5.6122705,-107.75221)" /><path
                 style="fill:#000600;fill-opacity:0;stroke:#000000;stroke-width:0.765;stroke-linecap:round;stroke-opacity:1"
                 d="m 128.55362,134.04243 -0.1707,1.68078 c -0.0431,0.75652 -0.0694,1.514 -0.0788,2.27169 -0.005,0.42455 -0.005,0.84916 0,1.27371 0.009,0.76644 0.0357,1.53267 0.0788,2.29795 -0.0821,0.70093 -0.0781,1.40886 -0.0525,2.11411 l 0.0525,1.44442 c 0.005,0.12414 0.0158,0.24901 0.0525,0.36767"
                 id="path16"
                 inkscape:path-effect="#path-effect17-1-6"
                 inkscape:original-d="m 128.55362,134.04243 c -0.1707,11.08266 -0.1445,0.95857 -0.1707,1.68078 0.0262,-0.74847 -0.0788,1.84711 -0.0788,2.27169 0,0.42457 -0.0219,0.50336 0,1.27371 0.0219,0.77036 0.0788,1.61075 0.0788,2.29795 0.0132,-0.70033 -0.07,1.63263 -0.0525,2.11411 0.0175,0.48147 0.035,0.96295 0.0525,1.44442 0.0175,0.48147 0.035,0.24512 0.0525,0.36767"
                 transform="matrix(0.4408588,0,0,0.61534063,-5.6122705,-107.75221)" /><path
                 style="fill:#000600;fill-opacity:0;stroke:#000000;stroke-width:0.765;stroke-opacity:1"
                 d="m 128.56676,135.69695 c 0.21688,0.0143 0.43639,-0.0126 0.64342,-0.0788 0.31576,-0.10095 0.59615,-0.29003 0.85352,-0.49898 0.32987,-0.26781 0.62995,-0.57229 0.89292,-0.90604 0.14038,-0.30947 0.35919,-0.58298 0.63029,-0.78787 0.23622,-0.17853 0.51162,-0.30494 0.801,-0.36767"
                 id="path17"
                 inkscape:path-effect="#path-effect18-0-3"
                 inkscape:original-d="m 128.56676,135.69695 c 0.20571,-0.0175 0.4377,-0.0613 0.64342,-0.0788 0.20572,-0.0175 0.56026,-0.3239 0.85352,-0.49898 0.29326,-0.17508 1.1818,-1.20806 0.89292,-0.90604 0.26262,-0.30202 0.41144,-0.52525 0.63029,-0.78787 0.21885,-0.26263 0.534,-0.24512 0.801,-0.36767"
                 transform="matrix(0.4408588,0,0,0.61534063,-5.6122705,-107.75221)" /><path
                 style="fill:#000600;fill-opacity:0;stroke:#000000;stroke-width:0.765;stroke-linecap:round;stroke-opacity:1"
                 d="m 129.10513,137.73227 -0.65656,0.23636 0.68282,-0.23636 c 0.1596,-0.15573 0.31296,-0.31785 0.45959,-0.48585 0.2114,-0.24221 0.40881,-0.49664 0.5909,-0.7616"
                 id="path18"
                 inkscape:path-effect="#path-effect19-1-4"
                 inkscape:original-d="m 129.10513,137.73227 -0.65656,0.23636 c 0.20135,-0.0788 0.91043,-0.31514 0.68282,-0.23636 0.20135,-0.0788 0.29764,-0.3239 0.45959,-0.48585 0.16195,-0.16195 0.39393,-0.50773 0.5909,-0.7616"
                 transform="matrix(0.4408588,0,0,0.61534063,-5.6122705,-107.75221)" /><path
                 style="fill:#000600;fill-opacity:0;stroke:#000000;stroke-width:0.765;stroke-linecap:round;stroke-opacity:1"
                 d="m 128.5011,141.68474 c 0.44341,-0.11516 0.85995,-0.33248 1.20806,-0.63029 0.38033,-0.32537 0.6742,-0.73983 0.93231,-1.16867 0.26067,-0.4331 0.48912,-0.8856 0.68282,-1.35251 l 0.45959,-0.95857"
                 id="path20"
                 inkscape:path-effect="#path-effect21-68-8"
                 inkscape:original-d="m 128.5011,141.68474 c 0.39393,-0.19259 0.801,-0.41144 1.20806,-0.63029 0.40707,-0.21886 0.62154,-0.77912 0.93231,-1.16867 0.31077,-0.38956 0.91043,-1.79459 0.68282,-1.35251 0.22761,-0.41582 0.30639,-0.63029 0.45959,-0.95857"
                 transform="matrix(0.4408588,0,0,0.61534063,-5.6122705,-107.75221)" /><path
                 style="fill:#04198c;fill-opacity:1;stroke:#000000;stroke-width:0.765964;stroke-linecap:round;stroke-dasharray:none;stroke-opacity:1"
                 d="m 116.49926,128.92129 c -0.46962,0.53678 -0.90009,1.10781 -1.28685,1.70705 -0.42024,0.65112 -0.78897,1.33546 -1.23432,1.96967 -0.44793,0.63789 -0.96984,1.22004 -1.44443,1.83835 -0.43499,0.56671 -0.83021,1.16394 -1.1818,1.78584 -0.40513,0.51922 -0.79068,1.05372 -1.15554,1.60199 -0.66562,1.00021 -1.26162,2.04498 -1.83835,3.09895 -0.5546,1.01353 -1.09256,2.03778 -1.54947,3.09894 -0.56711,1.31707 -1.00759,2.68688 -1.602,3.99186 -0.10875,0.23875 -0.22259,0.47518 -0.34141,0.70908 l -0.0263,1.02422 c -0.0351,0.43749 0.0377,0.88325 0.2101,1.28685 0.10539,0.24666 0.24749,0.47758 0.42019,0.68282 0.10792,0.10875 0.21516,0.21818 0.32171,0.32828 0.0894,0.0924 0.17835,0.18526 0.26263,0.28232 0.0816,0.094 0.15867,0.19169 0.23636,0.28888 0.11461,0.14337 0.23061,0.28564 0.34797,0.42677 l 0.47929,0.38736 c 0.0633,0.0833 0.15936,0.14092 0.26262,0.15758 0.0733,0.0118 0.14983,0.003 0.21879,-0.0242 0.069,-0.0276 0.1302,-0.0742 0.17514,-0.13335 l 0.37424,-0.26919 c 0.21496,-0.11727 0.42331,-0.24667 0.62373,-0.38736 0.23964,-0.16823 0.46793,-0.35262 0.68281,-0.55151 l 0.72222,-0.44646 0.59746,-0.44646 0.44646,-0.42676 0.36767,-0.36767 0.12475,-0.70251 0.21666,-0.88635 c 0.0792,-0.30373 0.14709,-0.61041 0.20353,-0.91918 0.0351,-0.19185 0.0657,-0.38451 0.0919,-0.57777 l 0.23636,-1.51008 c 0.0786,-0.3218 0.1357,-0.64886 0.1707,-0.97827 0.0316,-0.29714 0.0452,-0.596 0.0788,-0.89291 0.0142,-0.12518 0.0319,-0.24995 0.0525,-0.37424 0.0729,-0.43965 0.18166,-0.87241 0.28232,-1.30655 0.0794,-0.34249 0.15383,-0.68613 0.22322,-1.03079 0.0439,-0.25708 0.10316,-0.51155 0.17727,-0.7616 0.0879,-0.29663 0.19662,-0.58661 0.29545,-0.87979 0.22743,-0.67465 0.4024,-1.36565 0.60404,-2.04845 0.15134,-0.51248 0.31777,-1.02051 0.49898,-1.52321 0.26421,-0.65392 0.56238,-1.29412 0.89291,-1.91715 0.37945,-0.71525 0.80149,-1.40779 1.26059,-2.07471 0.22739,-0.33032 0.46387,-0.65439 0.70908,-0.9717"
                 id="path21"
                 inkscape:original-d="m 116.49926,128.92129 c -0.44646,0.54276 -0.89292,1.13804 -1.28685,1.70705 -0.39393,0.56901 -0.81413,1.31311 -1.23432,1.96967 -0.4202,0.65655 -0.9542,1.23432 -1.44443,1.83835 -0.49023,0.60403 -1.57573,2.38987 -1.1818,1.78584 -0.39393,0.57776 -0.77036,1.05924 -1.15554,1.60199 -0.38518,0.54275 -1.22557,2.08347 -1.83835,3.09895 -0.61279,1.01547 -1.03298,2.04845 -1.54947,3.09894 -0.51649,1.05049 -1.08551,2.67875 -1.602,3.99186 -0.51649,1.31311 -0.47272,0.95419 -0.34141,0.70908 -0.13131,0.21885 -0.035,1.36563 -0.0263,1.02422 -0.009,0.31515 0.14006,0.84915 0.2101,1.28685 0.07,0.43771 0.55807,0.91043 0.42019,0.68282 0.13131,0.22761 0.21229,0.21885 0.32171,0.32828 0.10943,0.10943 0.17508,0.18821 0.26263,0.28232 0.0875,0.0941 0.15757,0.19259 0.23636,0.28888 0.0788,0.0963 0.46177,0.56683 0.34797,0.42677 0.10724,0.13349 0.63905,0.51867 0.47929,0.38736 0.15319,0.13131 0.17289,0.10505 0.26262,0.15758 0.0897,0.0525 0.52305,-0.2101 0.39393,-0.15758 0.12256,-0.0525 0.49899,-0.35891 0.37424,-0.26919 0.11818,-0.0897 0.41363,-0.25824 0.62373,-0.38736 0.2101,-0.12913 0.90823,-0.73316 0.68281,-0.55151 0.21886,-0.17508 0.96076,-0.59747 0.72222,-0.44646 0.22541,-0.15101 0.79881,-0.59528 0.59746,-0.44646 0.19478,-0.14882 0.59528,-0.56901 0.44646,-0.42676 0.14225,-0.14225 0.48804,-0.49023 0.36767,-0.36767 0.10724,-0.12256 0.17071,-0.93888 0.12475,-0.70251 0.046,-0.24293 0.29107,-1.17962 0.21666,-0.88635 0.081,-0.29327 0.13788,-0.61279 0.20353,-0.91918 0.0657,-0.30639 0.12037,-0.77036 0.0919,-0.57777 0.0219,-0.19259 0.31734,-2.01125 0.23636,-1.51008 0.081,-0.4946 0.1138,-0.64999 0.1707,-0.97827 0.0569,-0.32827 0.0525,-0.59528 0.0788,-0.89291 0.0263,-0.29764 0.035,-0.2495 0.0525,-0.37424 0.0175,-0.12475 0.18821,-0.87103 0.28232,-1.30655 0.0941,-0.43551 0.29763,-1.3722 0.22322,-1.03079 0.0744,-0.33484 0.12694,-0.52306 0.17727,-0.7616 0.0503,-0.23855 0.19697,-0.57777 0.29545,-0.87979 0.0985,-0.30202 0.41144,-1.35688 0.60404,-2.04845 0.19259,-0.69157 0.68281,-2.02219 0.49898,-1.52321 0.18383,-0.47272 0.59528,-1.26934 0.89291,-1.91715 0.29764,-0.6478 0.8579,-1.39189 1.26059,-2.07471 0.40269,-0.68282 0.45521,-0.63905 0.70908,-0.9717"
                 inkscape:path-effect="#path-effect22-4-1"
                 transform="matrix(0.4408588,0,0,0.61534063,-5.6122705,-107.75221)" /><path
                 style="fill:#000600;fill-opacity:0;stroke:#000000;stroke-width:0.765;stroke-opacity:1"
                 d="m 114.46394,128.21221 -0.11818,3.44036"
                 id="path31"
                 inkscape:path-effect="#path-effect32-1-5"
                 inkscape:original-d="m 114.46394,128.21221 c -0.0481,1.14679 -0.0832,2.29357 -0.11818,3.44036"
                 transform="matrix(0.4408588,0,0,0.61534063,-5.6122705,-107.75221)" /><path
                 style="fill:#8fadbf;fill-opacity:1;stroke:#000000;stroke-width:0.398446;stroke-opacity:1"
                 d="m 44.875951,-23.249552 1.023351,3.508085 0.835057,0.502792 0.270168,-1.42837 -1.539127,-4.365117 z"
                 id="path40" /><path
                 style="fill:#8fadbf;fill-opacity:1;stroke:#000000;stroke-width:0.398446;stroke-opacity:1"
                 d="m 43.516932,-27.408977 0.720443,1.885448 0.474836,-0.868444 -0.671322,-1.599783 z"
                 id="path41" /><path
                 style="fill:#000600;fill-opacity:0;stroke:#000000;stroke-width:0.765;stroke-opacity:1"
                 d="m 114.671,125.13531 0.11142,0.64995 -0.10214,-0.64995 0.23213,-0.80781 c 0.30908,-0.14964 0.64322,-0.24736 0.98422,-0.28784 0.4226,-0.0502 0.85548,-0.012 1.26277,0.11142 0.27265,0.41988 0.5003,0.86895 0.67782,1.33706 0.0326,0.086 0.0636,0.17272 0.0928,0.25998"
                 id="path42"
                 inkscape:path-effect="#path-effect42-5-7"
                 inkscape:original-d="m 114.671,125.13531 0.11142,0.64995 c -0.0371,-0.22903 -0.13928,-0.86042 -0.10214,-0.64995 -0.0464,-0.21047 0.30951,-1.07708 0.23213,-0.80781 0.0681,-0.26927 0.65305,-0.19189 0.98422,-0.28784 0.33117,-0.0959 1.6837,0.14547 1.26277,0.11142 0.42093,0.0248 0.45188,0.89137 0.67782,1.33706 0.22594,0.44569 0.0619,0.17332 0.0928,0.25998"
                 transform="matrix(0.4408588,0,0,0.61534063,-5.6122705,-107.75221)" /></g></g></g></g></g><path
       style="opacity:0.99;fill:#f3f3f3;fill-opacity:0.97647059;stroke:#f2f2f2;stroke-width:0.0334066"
       d="m 156.81198,228.66696 c -0.49686,-0.39659 -1.036,-0.97971 -1.4469,-1.5649 -0.35565,-0.50652 -0.74688,-1.22599 -1.0029,-1.84436 -0.0604,-0.14584 -0.18412,-0.42426 -0.27498,-0.61871 -0.32438,-0.69426 -0.63556,-1.53577 -0.86614,-2.3423 -0.18911,-0.66146 -0.38846,-1.54121 -0.35647,-1.57319 0.008,-0.008 0.17093,-0.0326 0.36227,-0.0548 1.18993,-0.13809 2.17517,-0.33067 3.07136,-0.60033 0.18504,-0.0557 0.24859,-0.0672 0.24859,-0.0452 0,0.0984 0.12347,2.39147 0.18844,3.4999 0.10744,1.83287 0.31252,4.86291 0.35409,5.23149 0.007,0.0638 0.005,0.11583 -0.005,0.11562 -0.01,-2.2e-4 -0.13252,-0.0917 -0.27228,-0.20323 z"
       id="path1"
       transform="matrix(0.26458333,0,0,0.26458333,-2.5099455,1.984693)" /></g></svg>
